<?xml version="1.0" standalone="no"?>
<!DOCTYPE svg PUBLIC "-//W3C//DTD SVG 20010904//EN"
 "http://www.w3.org/TR/2001/REC-SVG-20010904/DTD/svg10.dtd">
<svg version="1.0" xmlns="http://www.w3.org/2000/svg"
 width="260.000000pt" height="260.000000pt" viewBox="0 0 260.000000 260.000000"
 preserveAspectRatio="xMidYMid meet">
<metadata>
Created by potrace 1.11, written by Peter Selinger 2001-2013
</metadata>
<g transform="translate(0.000000,260.000000) scale(0.100000,-0.100000)"
fill="#000000" stroke="none">
<path d="M927 2263 c-4 -3 -7 -142 -7 -307 -1 -329 -6 -381 -41 -409 -24 -19
-41 -18 -97 4 -28 12 -34 12 -42 -1 -16 -25 -12 -127 5 -144 22 -21 74 -29
158 -24 99 7 133 26 165 96 l27 57 3 353 c3 268 1 356 -8 367 -9 11 -33 15
-85 15 -39 0 -75 -3 -78 -7z"/>
<path d="M1309 2263 c-9 -2 -19 -18 -23 -35 -10 -53 -7 -784 4 -813 l10 -27
203 4 c160 4 211 8 247 22 113 43 159 103 167 219 4 65 2 77 -24 127 -22 43
-38 60 -74 79 l-46 25 37 35 c46 43 65 103 55 176 -14 112 -77 167 -215 185
-74 9 -310 12 -341 3z m315 -147 c40 -17 70 -74 61 -116 -4 -16 -22 -43 -42
-60 -33 -29 -39 -31 -106 -28 l-72 3 -3 94 c-1 52 -1 100 2 108 7 18 116 17
160 -1z m36 -361 c77 -40 93 -120 36 -183 l-34 -37 -99 0 -98 0 -3 104 c-1 58
0 111 2 118 8 19 158 18 196 -2z"/>
<path d="M1643 1169 c-195 -32 -304 -190 -303 -439 1 -201 67 -335 192 -390
107 -48 331 -35 403 22 22 17 25 27 25 89 0 83 -6 85 -96 37 -49 -27 -69 -33
-119 -32 -120 1 -194 77 -214 218 -22 153 29 285 130 336 59 31 115 26 197
-16 39 -20 78 -34 86 -31 19 7 23 106 6 138 -15 28 -79 57 -151 69 -72 11 -83
11 -156 -1z"/>
<path d="M553 1163 c-7 -2 -13 -17 -13 -31 0 -30 246 -779 263 -800 7 -9 39
-12 116 -10 l106 3 132 390 c73 215 133 402 133 416 0 31 -15 39 -73 39 -85 0
-82 3 -138 -174 -28 -88 -73 -232 -101 -319 -27 -86 -53 -155 -57 -153 -4 3
-52 145 -106 316 -87 272 -103 313 -123 321 -25 9 -118 11 -139 2z"/>
</g>
</svg>
